<svg enable-background="new 0 0 350 350" viewBox="0 0 350 350" xmlns="http://www.w3.org/2000/svg"><path d="m175 0c-96.496 0-175 78.504-175 175s78.504 175 175 175 175-78.504 175-175-78.504-175-175-175zm0 272.669c-11.045 0-20-8.954-20-20s8.955-20 20-20 20 8.954 20 20-8.955 20-20 20zm.508-97.94c-41.748 0-75.712 33.964-75.712 75.713 0 36.735 26.308 67.421 61.068 74.265-76.312-7.15-136.24-71.558-136.24-149.707 0-82.918 67.46-150.377 150.376-150.377 5.05 0 6.855.164 6.855.164 38.255 3.463 68.231 35.614 68.231 74.771 0 74.817-74.578 75.171-74.578 75.171z"/><circle cx="175" cy="98.333" r="20"/></svg>